<?xml version="1.0" encoding="UTF-8" standalone="no"?>
<svg
   viewBox="0 0 24 24"
   version="1.1"
   id="svg2"
   sodipodi:docname="award-ribbon-star-2.svg"
   inkscape:version="1.3 (0e150ed, 2023-07-21)"
   xmlns:inkscape="http://www.inkscape.org/namespaces/inkscape"
   xmlns:sodipodi="http://sodipodi.sourceforge.net/DTD/sodipodi-0.dtd"
   xmlns="http://www.w3.org/2000/svg"
   xmlns:svg="http://www.w3.org/2000/svg">
  <sodipodi:namedview
     id="namedview2"
     pagecolor="#505050"
     bordercolor="#eeeeee"
     borderopacity="1"
     inkscape:showpageshadow="0"
     inkscape:pageopacity="0"
     inkscape:pagecheckerboard="0"
     inkscape:deskcolor="#505050"
     inkscape:zoom="9.8333333"
     inkscape:cx="1.4237288"
     inkscape:cy="11.59322"
     inkscape:window-width="1312"
     inkscape:window-height="449"
     inkscape:window-x="260"
     inkscape:window-y="563"
     inkscape:window-maximized="0"
     inkscape:current-layer="svg2" />
  <defs
     id="defs1">
    <style
       id="style1">.a{fill:none;stroke:#000;stroke-linecap:round;stroke-linejoin:round;stroke-width:1.5px;}</style>
  </defs>
  <title
     id="title1">award-ribbon-star-2</title>
  <polyline
     class="a"
     points="4.717 13.152 0.75 18 4.5 18.75 6 23.25 9.991 16.918"
     id="polyline1"
     style="fill:#00d146;fill-opacity:1;stroke:#00d146;stroke-opacity:1" />
  <polyline
     class="a"
     points="19.283 13.152 23.25 18 19.5 18.75 18 23.25 14.01 16.918"
     id="polyline2"
     style="stroke:#00d146;stroke-opacity:1;fill:#00d146;fill-opacity:1" />
  <path
     class="a"
     d="M12.471.916,14.318,2.4l2.369-.118a.75.75,0,0,1,.761.553l.62,2.29,1.986,1.3a.752.752,0,0,1,.291.9L19.5,9.537l.845,2.216a.751.751,0,0,1-.291.895l-1.986,1.3-.62,2.29a.75.75,0,0,1-.761.553l-2.369-.118-1.847,1.488a.751.751,0,0,1-.941,0L9.683,16.67l-2.369.118a.751.751,0,0,1-.762-.553l-.619-2.29-1.986-1.3a.748.748,0,0,1-.291-.895L4.5,9.537,3.656,7.32a.749.749,0,0,1,.291-.9l1.986-1.3.619-2.29a.751.751,0,0,1,.762-.553L9.683,2.4,11.53.916A.751.751,0,0,1,12.471.916Z"
     id="path2"
     style="fill:#ffffff;fill-opacity:1;stroke:#ffffff;stroke-opacity:1" />
  <path
     class="a"
     d="M12.531,5.042,13.78,7.5h2.126a.582.582,0,0,1,.419,1l-1.952,1.922L15.455,12.9a.59.59,0,0,1-.84.737L12,12.169,9.385,13.64a.589.589,0,0,1-.839-.737l1.082-2.485L7.675,8.5a.582.582,0,0,1,.42-1h2.126L11.47,5.042A.6.6,0,0,1,12.531,5.042Z"
     id="path1"
     style="fill:#00d146;fill-opacity:1;stroke:#00d146;stroke-opacity:1" />
</svg>
