<?xml version="1.0" encoding="UTF-8" standalone="no"?>
<svg
   viewBox="0 0 24 24"
   version="1.1"
   id="svg4"
   sodipodi:docname="calendar-edit-1.svg"
   inkscape:version="1.3 (0e150ed, 2023-07-21)"
   xmlns:inkscape="http://www.inkscape.org/namespaces/inkscape"
   xmlns:sodipodi="http://sodipodi.sourceforge.net/DTD/sodipodi-0.dtd"
   xmlns="http://www.w3.org/2000/svg"
   xmlns:svg="http://www.w3.org/2000/svg">
  <sodipodi:namedview
     id="namedview4"
     pagecolor="#505050"
     bordercolor="#eeeeee"
     borderopacity="1"
     inkscape:showpageshadow="0"
     inkscape:pageopacity="0"
     inkscape:pagecheckerboard="0"
     inkscape:deskcolor="#505050"
     inkscape:zoom="6.0149815"
     inkscape:cx="-1.9950186"
     inkscape:cy="13.96513"
     inkscape:window-width="1312"
     inkscape:window-height="449"
     inkscape:window-x="910"
     inkscape:window-y="467"
     inkscape:window-maximized="0"
     inkscape:current-layer="svg4" />
  <defs
     id="defs1">
    <style
       id="style1">.a,.b{fill:none;stroke:#000;stroke-linejoin:round;stroke-width:1.5px;}.a{stroke-linecap:round;}</style>
  </defs>
  <title
     id="title1">calendar-edit-1</title>
  <path
     class="a"
     d="M 16.995764,17.404456 H 2.2500012 c -0.828427,0 -1.50000001,-0.671573 -1.50000001,-1.5 V 3.9044573 c 0,-0.828427 0.67157301,-1.5 1.50000001,-1.5 H 15.750001 c 0.828427,0 1.5,0.671573 1.5,1.5 V 17.048524"
     id="path1-6"
     sodipodi:nodetypes="cssssssc"
     style="fill:#00d146;fill-opacity:1;stroke:#00d146;stroke-width:1.5px;stroke-linecap:round;stroke-linejoin:round;stroke-opacity:1" />
  <path
     class="a"
     d="M 17.098306,6.5349693 H 2.1641602 c -0.839007,0 -1.51916301,-0.406351 -1.51916301,-0.907611 v -2.420295 c 0,-0.50126 0.68015601,-0.907611 1.51916201,-0.907611 H 15.836627 c 0.839011,0 1.519164,0.406351 1.519164,0.907611 v 3.112541"
     id="path1-5"
     sodipodi:nodetypes="cssssssc"
     style="fill:#ffffff;fill-opacity:1;stroke:#ffffff;stroke-width:1.28999;stroke-linecap:round;stroke-linejoin:round;stroke-dasharray:none;stroke-opacity:1" />
  <line
     class="a"
     x1="5.2890863"
     y1="3.4895194"
     x2="5.2890863"
     y2="0.48951849"
     id="line2-5"
     style="fill:none;stroke:#00d146;stroke-width:0.979037px;stroke-linecap:round;stroke-linejoin:round;stroke-opacity:1" />
  <line
     class="a"
     x1="12.789083"
     y1="3.4895194"
     x2="12.789083"
     y2="0.48951849"
     id="line3-4"
     style="fill:none;stroke:#00d146;stroke-width:0.979037px;stroke-linecap:round;stroke-linejoin:round;stroke-opacity:1" />
  <rect
     style="fill:#ffffff;fill-opacity:1;stroke:#ffffff;stroke-width:1.27846;stroke-dasharray:none;stroke-opacity:1"
     id="rect2"
     width="16.721548"
     height="1.5039663"
     x="0.63923001"
     y="5.0458436" />
  <path
     class="a"
     d="M22.63,14.786,15,22.416l-3.75.75.75-3.75,7.63-7.63a2.116,2.116,0,0,1,2.992,0l.008.008A2.114,2.114,0,0,1,22.63,14.786Z"
     id="path1"
     style="stroke:#ffffff;stroke-opacity:1;fill:#ffffff;fill-opacity:1" />
</svg>
