<?xml version="1.0" encoding="UTF-8" standalone="no"?>
<svg
   width="322"
   height="322"
   viewBox="0 0 322 322"
   fill="none"
   version="1.1"
   id="svg64"
   sodipodi:docname="cart.svg"
   inkscape:version="1.2.1 (9c6d41e4, 2022-07-14)"
   xmlns:inkscape="http://www.inkscape.org/namespaces/inkscape"
   xmlns:sodipodi="http://sodipodi.sourceforge.net/DTD/sodipodi-0.dtd"
   xmlns="http://www.w3.org/2000/svg"
   xmlns:svg="http://www.w3.org/2000/svg">
  <defs
     id="defs68" />
  <sodipodi:namedview
     id="namedview66"
     pagecolor="#ffffff"
     bordercolor="#999999"
     borderopacity="1"
     inkscape:showpageshadow="0"
     inkscape:pageopacity="0"
     inkscape:pagecheckerboard="0"
     inkscape:deskcolor="#d1d1d1"
     showgrid="false"
     inkscape:zoom="0.72620391"
     inkscape:cx="-137.70237"
     inkscape:cy="202.42248"
     inkscape:window-width="1309"
     inkscape:window-height="404"
     inkscape:window-x="0"
     inkscape:window-y="25"
     inkscape:window-maximized="0"
     inkscape:current-layer="svg64" />
  <path
     d="M 80.935701,255.90869 H 206.50593 c 4.48482,0 8.82436,-1.58676 12.25071,-4.48104 3.42729,-2.89334 5.71876,-6.90647 6.46874,-11.32809 L 258.6021,43.91653 c 0.75282,-4.419255 3.04523,-8.429366 6.47157,-11.320443 3.42635,-2.891076 7.76495,-4.476423 12.24788,-4.47548 h 12.45448"
     stroke="#82bc00"
     stroke-width="18"
     stroke-linecap="round"
     stroke-linejoin="round"
     id="path50"
     style="stroke:#00d146;stroke-opacity:1" />
  <path
     d="m 104.66732,284.38645 c 0.93866,0 1.85657,0.27829 2.63674,0.79998 0.78112,0.52169 1.3896,1.26319 1.74903,2.13015 0.35848,0.86696 0.45282,1.82166 0.2698,2.7424 -0.18301,0.92074 -0.63489,1.76695 -1.29903,2.43014 -0.66414,0.66414 -1.50941,1.11602 -2.43014,1.29903 -0.92074,0.18302 -1.87544,0.0896 -2.7424,-0.2698 -0.86697,-0.35943 -1.60846,-0.96791 -2.13015,-1.74808 -0.52169,-0.78112 -0.799979,-1.69808 -0.799979,-2.63769 0,-1.25846 0.499989,-2.46599 1.390539,-3.35559 0.8896,-0.89055 2.09713,-1.39054 3.35559,-1.39054 z"
     fill="#82bc00"
     stroke="#82bc00"
     stroke-width="18"
     stroke-linecap="round"
     stroke-linejoin="round"
     id="path52"
     style="fill:#00d146;fill-opacity:1;stroke:#00d146;stroke-opacity:1" />
  <path
     d="m 199.59474,284.38645 c 0.93866,0 1.85657,0.27829 2.63674,0.79998 0.78112,0.52169 1.3896,1.26319 1.74903,2.13015 0.35848,0.86696 0.45282,1.82166 0.2698,2.7424 -0.18301,0.92074 -0.63489,1.76695 -1.29903,2.43014 -0.66414,0.66414 -1.5094,1.11602 -2.43014,1.29903 -0.92074,0.18302 -1.87544,0.0896 -2.7424,-0.2698 -0.86696,-0.35943 -1.60846,-0.96791 -2.13015,-1.74808 -0.52169,-0.78112 -0.79998,-1.69808 -0.79998,-2.63769 0,-1.25846 0.49999,-2.46599 1.39054,-3.35559 0.8896,-0.89055 2.09713,-1.39054 3.35559,-1.39054 z"
     fill="#82bc00"
     stroke="#82bc00"
     stroke-width="18"
     stroke-linecap="round"
     stroke-linejoin="round"
     id="path54"
     style="stroke:#00d146;stroke-opacity:1;fill:#00d146;fill-opacity:1" />
  <path
     d="M 232.22431,198.95224 H 79.442151 c -8.466446,-9.4e-4 -16.689779,-2.83202 -23.363236,-8.0423 -6.673456,-5.21028 -11.414026,-12.5007 -13.468609,-20.7147 L 24.257734,96.78476 c -0.350276,-1.399973 -0.376597,-2.86136 -0.07717,-4.273125 0.299428,-1.411765 0.916774,-2.736646 1.805154,-3.873982 0.888379,-1.137243 2.0243,-2.057036 3.32154,-2.689383 1.297239,-0.632346 2.721551,-0.960642 4.164731,-0.959793 H 251.60224"
     fill="#82bc00"
     id="path60"
     style="stroke-width:0.943378;fill:#00d146;fill-opacity:1" />
  <path
     d="M 232.22431,198.95224 H 79.442151 c -8.466446,-9.4e-4 -16.689779,-2.83202 -23.363236,-8.0423 -6.673456,-5.21028 -11.414026,-12.5007 -13.468609,-20.7147 L 24.257734,96.78476 c -0.350276,-1.399973 -0.376597,-2.86136 -0.07717,-4.273125 0.299428,-1.411765 0.916774,-2.736646 1.805154,-3.873982 0.888379,-1.137243 2.0243,-2.057036 3.32154,-2.689383 1.297239,-0.632346 2.721551,-0.960642 4.164731,-0.959793 H 251.60224"
     stroke="#82bc00"
     stroke-width="1.5"
     stroke-linecap="round"
     stroke-linejoin="round"
     id="path62" />
</svg>
