<?xml version="1.0" encoding="UTF-8" standalone="no"?>
<svg
   width="92"
   height="75"
   viewBox="0 0 92 75"
   fill="none"
   version="1.1"
   id="svg8"
   sodipodi:docname="dark.svg"
   inkscape:version="1.2.1 (9c6d41e4, 2022-07-14)"
   xmlns:inkscape="http://www.inkscape.org/namespaces/inkscape"
   xmlns:sodipodi="http://sodipodi.sourceforge.net/DTD/sodipodi-0.dtd"
   xmlns="http://www.w3.org/2000/svg"
   xmlns:svg="http://www.w3.org/2000/svg">
  <defs
     id="defs12" />
  <sodipodi:namedview
     id="namedview10"
     pagecolor="#ffffff"
     bordercolor="#999999"
     borderopacity="1"
     inkscape:showpageshadow="0"
     inkscape:pageopacity="0"
     inkscape:pagecheckerboard="0"
     inkscape:deskcolor="#d1d1d1"
     showgrid="false"
     inkscape:zoom="3.1466667"
     inkscape:cx="1.7478814"
     inkscape:cy="37.5"
     inkscape:window-width="1309"
     inkscape:window-height="404"
     inkscape:window-x="0"
     inkscape:window-y="25"
     inkscape:window-maximized="0"
     inkscape:current-layer="svg8" />
  <path
     d="M79.7901 57.0785H68.5587V73.7872L46.0959 57.0785H12.4018C9.42305 57.0785 6.56631 55.9049 4.46002 53.8159C2.35373 51.7269 1.17042 48.8937 1.17042 45.9394V12.522C1.17042 9.56777 2.35373 6.73449 4.46002 4.6455C6.56631 2.55652 9.42305 1.38293 12.4018 1.38293H79.7901C82.7688 1.38293 85.6256 2.55652 87.7319 4.6455C89.8382 6.73449 91.0215 9.56777 91.0215 12.522V45.9394C91.0215 48.8937 89.8382 51.7269 87.7319 53.8159C85.6256 55.9049 82.7688 57.0785 79.7901 57.0785Z"
     fill="#527700"
     stroke="#527700"
     stroke-width="1.5"
     stroke-linecap="round"
     stroke-linejoin="round"
     id="path2"
     style="fill:#00d146;fill-opacity:1;stroke:#00d146;stroke-opacity:1" />
  <path
     d="M50.8936 17.9574H23.851"
     stroke="white"
     stroke-width="12"
     stroke-linecap="round"
     stroke-linejoin="round"
     id="path4" />
  <path
     d="M68.3408 38.0212H23.8515"
     stroke="white"
     stroke-width="12"
     stroke-linecap="round"
     stroke-linejoin="round"
     id="path6" />
</svg>
