<?xml version="1.0" encoding="UTF-8" standalone="no"?>
<svg
   width="105"
   height="86"
   viewBox="0 0 105 86"
   fill="none"
   version="1.1"
   id="svg8"
   sodipodi:docname="light.svg"
   inkscape:version="1.2.1 (9c6d41e4, 2022-07-14)"
   xmlns:inkscape="http://www.inkscape.org/namespaces/inkscape"
   xmlns:sodipodi="http://sodipodi.sourceforge.net/DTD/sodipodi-0.dtd"
   xmlns="http://www.w3.org/2000/svg"
   xmlns:svg="http://www.w3.org/2000/svg">
  <defs
     id="defs12" />
  <sodipodi:namedview
     id="namedview10"
     pagecolor="#ffffff"
     bordercolor="#999999"
     borderopacity="1"
     inkscape:showpageshadow="0"
     inkscape:pageopacity="0"
     inkscape:pagecheckerboard="0"
     inkscape:deskcolor="#d1d1d1"
     showgrid="false"
     inkscape:zoom="2.744186"
     inkscape:cx="1.6398305"
     inkscape:cy="43"
     inkscape:window-width="1309"
     inkscape:window-height="404"
     inkscape:window-x="0"
     inkscape:window-y="25"
     inkscape:window-maximized="0"
     inkscape:current-layer="svg8" />
  <path
     d="M91.085 65.4688H78.2725V84.6875L52.6475 65.4688H14.21C10.8119 65.4688 7.55297 64.1189 5.15016 61.7161C2.74735 59.3132 1.39746 56.0543 1.39746 52.6563V14.2188C1.39746 10.8207 2.74735 7.56175 5.15016 5.15894C7.55297 2.75613 10.8119 1.40625 14.21 1.40625H91.085C94.4831 1.40625 97.742 2.75613 100.145 5.15894C102.548 7.56175 103.897 10.8207 103.897 14.2188V52.6563C103.897 56.0543 102.548 59.3132 100.145 61.7161C97.742 64.1189 94.4831 65.4688 91.085 65.4688Z"
     fill="#82BC00"
     stroke="#82BC00"
     stroke-width="1.5"
     stroke-linecap="round"
     stroke-linejoin="round"
     id="path2"
     style="fill:#00d146;fill-opacity:1;stroke:#00d146;stroke-opacity:1" />
  <path
     d="M59.0537 20.625H27.0225"
     stroke="white"
     stroke-width="12"
     stroke-linecap="round"
     stroke-linejoin="round"
     id="path4" />
  <path
     d="M78.2725 43.6875H27.0225"
     stroke="white"
     stroke-width="12"
     stroke-linecap="round"
     stroke-linejoin="round"
     id="path6" />
</svg>
