<?xml version="1.0" encoding="UTF-8" standalone="no"?>
<svg
   viewBox="0 0 24 24"
   version="1.1"
   id="svg20"
   sodipodi:docname="loader.svg"
   inkscape:version="1.2.1 (9c6d41e4, 2022-07-14)"
   xmlns:inkscape="http://www.inkscape.org/namespaces/inkscape"
   xmlns:sodipodi="http://sodipodi.sourceforge.net/DTD/sodipodi-0.dtd"
   xmlns="http://www.w3.org/2000/svg"
   xmlns:svg="http://www.w3.org/2000/svg">
  <sodipodi:namedview
     id="namedview22"
     pagecolor="#ffffff"
     bordercolor="#999999"
     borderopacity="1"
     inkscape:showpageshadow="0"
     inkscape:pageopacity="0"
     inkscape:pagecheckerboard="0"
     inkscape:deskcolor="#d1d1d1"
     showgrid="false"
     inkscape:zoom="3.7441008"
     inkscape:cx="-50.88004"
     inkscape:cy="13.087254"
     inkscape:window-width="1309"
     inkscape:window-height="456"
     inkscape:window-x="892"
     inkscape:window-y="845"
     inkscape:window-maximized="0"
     inkscape:current-layer="svg20" />
  <defs
     id="defs4">
    <style
       id="style2">.a{fill:none;stroke:#000;stroke-linecap:round;stroke-linejoin:round;stroke-width:1.5px;}</style>
  </defs>
  <title
     id="title6">loading-1</title>
  <path
     class="a"
     d="M11.5,7.9a.534.534,0,0,0,1,0l2.436-6.759a11.289,11.289,0,0,0-5.876,0Z"
     id="path8"
     style="fill:#00d146;fill-opacity:1;stroke:#00d146;stroke-opacity:1" />
  <path
     class="a"
     d="M11.5,16.1a.533.533,0,0,1,1,0l2.436,6.759a11.318,11.318,0,0,1-5.876,0Z"
     id="path10"
     style="fill:#00d146;fill-opacity:1;stroke:#00d146;stroke-opacity:1" />
  <path
     class="a"
     d="M8.7,14.484a.534.534,0,0,0-.5-.87l-7.071,1.27a11.3,11.3,0,0,0,2.938,5.089Z"
     id="path12"
     style="fill:#00d146;fill-opacity:1;stroke:#00d146;stroke-opacity:1" />
  <path
     class="a"
     d="M15.805,10.381a.534.534,0,0,1-.5-.87l4.635-5.489a11.287,11.287,0,0,1,2.938,5.089Z"
     id="path14"
     style="fill:#00d146;fill-opacity:1;stroke:#00d146;stroke-opacity:1" />
  <path
     class="a"
     d="M15.3,14.484a.534.534,0,0,1,.5-.87l7.071,1.27a11.3,11.3,0,0,1-2.938,5.089Z"
     id="path16"
     style="fill:#00d146;fill-opacity:1;stroke:#00d146;stroke-opacity:1" />
  <path
     class="a"
     d="M8.2,10.381a.534.534,0,0,0,.5-.87L4.064,4.022A11.287,11.287,0,0,0,1.126,9.111Z"
     id="path18"
     style="fill:#00d146;fill-opacity:1;stroke:#00d146;stroke-opacity:1" />
</svg>
