<?xml version="1.0" encoding="UTF-8" standalone="no"?>
<svg
   viewBox="0 0 24 24"
   version="1.1"
   id="svg4"
   sodipodi:docname="modern-tv-flat-screen.svg"
   xml:space="preserve"
   inkscape:version="1.3 (0e150ed, 2023-07-21)"
   xmlns:inkscape="http://www.inkscape.org/namespaces/inkscape"
   xmlns:sodipodi="http://sodipodi.sourceforge.net/DTD/sodipodi-0.dtd"
   xmlns="http://www.w3.org/2000/svg"
   xmlns:svg="http://www.w3.org/2000/svg"><sodipodi:namedview
     id="namedview4"
     pagecolor="#505050"
     bordercolor="#eeeeee"
     borderopacity="1"
     inkscape:showpageshadow="0"
     inkscape:pageopacity="0"
     inkscape:pagecheckerboard="0"
     inkscape:deskcolor="#505050"
     inkscape:zoom="7.3286289"
     inkscape:cx="-0.13645117"
     inkscape:cy="15.009629"
     inkscape:window-width="1312"
     inkscape:window-height="449"
     inkscape:window-x="657"
     inkscape:window-y="181"
     inkscape:window-maximized="0"
     inkscape:current-layer="svg4" /><defs
     id="defs1"><style
       id="style1">.a{fill:none;stroke:#000;stroke-linecap:round;stroke-linejoin:round;stroke-width:1.5px;}</style><style
       id="style1-7">.a{fill:none;stroke:#000;stroke-linecap:round;stroke-linejoin:round;stroke-width:1.5px;}</style></defs><title
     id="title1">modern-tv-flat-screen</title><rect
     class="a"
     x="0.75"
     y="2.625"
     width="22.5"
     height="15"
     rx="1"
     ry="1"
     id="rect1" /><line
     class="a"
     x1="7.5"
     y1="21.375"
     x2="16.5"
     y2="21.375"
     id="line1" /><line
     class="a"
     x1="12"
     y1="17.625"
     x2="12"
     y2="21.375"
     id="line2" /><rect
     class="a"
     x="0.75"
     y="2.625"
     width="22.5"
     height="15"
     rx="1"
     ry="1"
     id="rect2"
     style="stroke:#ffffff;stroke-opacity:1;fill:#ffffff;fill-opacity:1" /><line
     class="a"
     x1="7.5"
     y1="21.375"
     x2="16.5"
     y2="21.375"
     id="line3"
     style="stroke:#fdfdfd;stroke-opacity:1" /><line
     class="a"
     x1="12"
     y1="17.625"
     x2="12"
     y2="21.375"
     id="line4"
     style="stroke:#fdfdfd;stroke-opacity:1" /><g
     id="g4"
     transform="matrix(0.79969466,0,0,0.79969466,2.4036641,-2.9862596)"
     style="stroke:#00d146;stroke-opacity:1;fill:#00d146;fill-opacity:1"><path
       class="a"
       d="M 18,12.75 16.915,10.579 A 1.5,1.5 0 0 0 15.573,9.75 h -4.146 a 1.5,1.5 0 0 0 -1.342,0.829 L 9,12.75 H 4.5 A 1.5,1.5 0 0 0 3,14.25 v 7.5 a 1.5,1.5 0 0 0 1.5,1.5 h 15 a 1.5,1.5 0 0 0 1.5,-1.5 v -7.5 a 1.5,1.5 0 0 0 -1.5,-1.5 z"
       id="path1-7"
       style="stroke:#00d146;stroke-opacity:1;fill:#00d146;fill-opacity:1" /><path
       class="a"
       d="M 6.375,15.75 A 0.375,0.375 0 1 1 6,16.125 0.375,0.375 0 0 1 6.375,15.75"
       id="path2"
       style="stroke:#ffffff;stroke-opacity:1;fill:#00d146;fill-opacity:1" /><line
       class="a"
       x1="6"
       y1="12.75"
       x2="6"
       y2="11.25"
       id="line2-2"
       style="stroke:#00d146;stroke-opacity:1;fill:#00d146;fill-opacity:1" /><circle
       class="a"
       cx="13.5"
       cy="17.25"
       r="3"
       id="circle2"
       style="stroke:#ffffff;stroke-opacity:1;fill:#ffffff;fill-opacity:1" /></g></svg>
