<?xml version="1.0" encoding="UTF-8" standalone="no"?>
<svg
   width="81"
   height="80"
   viewBox="0 0 81 80"
   fill="none"
   version="1.1"
   id="svg105"
   sodipodi:docname="Notification.svg"
   inkscape:version="1.2.1 (9c6d41e4, 2022-07-14)"
   xmlns:inkscape="http://www.inkscape.org/namespaces/inkscape"
   xmlns:sodipodi="http://sodipodi.sourceforge.net/DTD/sodipodi-0.dtd"
   xmlns="http://www.w3.org/2000/svg"
   xmlns:svg="http://www.w3.org/2000/svg">
  <defs
     id="defs109" />
  <sodipodi:namedview
     id="namedview107"
     pagecolor="#ffffff"
     bordercolor="#999999"
     borderopacity="1"
     inkscape:showpageshadow="0"
     inkscape:pageopacity="0"
     inkscape:pagecheckerboard="0"
     inkscape:deskcolor="#d1d1d1"
     showgrid="false"
     inkscape:zoom="2.95"
     inkscape:cx="-6.9491525"
     inkscape:cy="40"
     inkscape:window-width="1309"
     inkscape:window-height="404"
     inkscape:window-x="0"
     inkscape:window-y="25"
     inkscape:window-maximized="0"
     inkscape:current-layer="svg105" />
  <path
     d="M42.6735 70H47.6735V77.5L57.6735 70H72.6735C73.9995 70 75.2713 69.4732 76.209 68.5355C77.1467 67.5978 77.6735 66.3261 77.6735 65V50C77.6735 48.6739 77.1467 47.4021 76.209 46.4645C75.2713 45.5268 73.9995 45 72.6735 45H42.6735C41.3474 45 40.0756 45.5268 39.1379 46.4645C38.2002 47.4021 37.6735 48.6739 37.6735 50V65C37.6735 66.3261 38.2002 67.5978 39.1379 68.5355C40.0756 69.4732 41.3474 70 42.6735 70Z"
     fill="#82BC00"
     stroke="#82BC00"
     stroke-width="1.5"
     stroke-linecap="round"
     stroke-linejoin="round"
     id="path93"
     style="fill:#00d146;fill-opacity:1;stroke:#00d146;stroke-opacity:1" />
  <path
     d="M55.1735 52.5H67.6735"
     stroke="white"
     stroke-width="4"
     stroke-linecap="round"
     stroke-linejoin="round"
     id="path95" />
  <path
     d="M47.6735 60H67.6735"
     stroke="white"
     stroke-width="4"
     stroke-linecap="round"
     stroke-linejoin="round"
     id="path97" />
  <path
     d="M37.6735 27.5H32.6735V35L22.6735 27.5H7.67346C6.34738 27.5 5.07561 26.9732 4.13793 26.0355C3.20025 25.0979 2.67346 23.8261 2.67346 22.5V7.5C2.67346 6.17392 3.20025 4.90215 4.13793 3.96447C5.07561 3.02678 6.34738 2.5 7.67346 2.5H37.6735C38.9995 2.5 40.2713 3.02678 41.209 3.96447C42.1467 4.90215 42.6735 6.17392 42.6735 7.5V22.5C42.6735 23.8261 42.1467 25.0979 41.209 26.0355C40.2713 26.9732 38.9995 27.5 37.6735 27.5Z"
     fill="#82BC00"
     stroke="#82BC00"
     stroke-width="1.5"
     stroke-linecap="round"
     stroke-linejoin="round"
     id="path99"
     style="fill:#00d146;fill-opacity:1;stroke:#00d146;stroke-opacity:1" />
  <path
     d="M25.1735 10H12.6735"
     stroke="white"
     stroke-width="4"
     stroke-linecap="round"
     stroke-linejoin="round"
     id="path101" />
  <path
     d="M32.6735 17.5H12.6735"
     stroke="white"
     stroke-width="4"
     stroke-linecap="round"
     stroke-linejoin="round"
     id="path103" />
</svg>
