<?xml version="1.0" encoding="UTF-8" standalone="no"?>
<svg
   viewBox="0 0 24 24"
   version="1.1"
   id="svg3"
   sodipodi:docname="taxi-wave-businessman.svg"
   inkscape:version="1.3 (0e150ed, 2023-07-21)"
   xmlns:inkscape="http://www.inkscape.org/namespaces/inkscape"
   xmlns:sodipodi="http://sodipodi.sourceforge.net/DTD/sodipodi-0.dtd"
   xmlns="http://www.w3.org/2000/svg"
   xmlns:svg="http://www.w3.org/2000/svg">
  <sodipodi:namedview
     id="namedview3"
     pagecolor="#505050"
     bordercolor="#eeeeee"
     borderopacity="1"
     inkscape:showpageshadow="0"
     inkscape:pageopacity="0"
     inkscape:pagecheckerboard="0"
     inkscape:deskcolor="#505050"
     inkscape:zoom="6.8290004"
     inkscape:cx="9.0789275"
     inkscape:cy="11.275442"
     inkscape:window-width="1312"
     inkscape:window-height="449"
     inkscape:window-x="609"
     inkscape:window-y="355"
     inkscape:window-maximized="0"
     inkscape:current-layer="svg3" />
  <defs
     id="defs1">
    <style
       id="style1">.a{fill:none;stroke:#000;stroke-linecap:round;stroke-linejoin:round;stroke-width:1.5px;}</style>
  </defs>
  <title
     id="title1">taxi-wave-businessman</title>
  <rect
     style="fill:#00d146;fill-opacity:1;stroke:none;stroke-width:1.36533;stroke-opacity:1"
     id="rect3"
     width="6.5855956"
     height="12.637388"
     x="9.6868143"
     y="11.362612" />
  <circle
     class="a"
     cx="12.75"
     cy="3.375"
     r="2.625"
     id="circle1"
     style="fill:#00d146;fill-opacity:1;stroke:#00d146;stroke-opacity:1" />
  <path
     class="a"
     d="M15,18.75V18a2.25,2.25,0,0,1,4.5,0v.75"
     id="path1"
     style="stroke:#ffffff;stroke-opacity:1" />
  <path
     class="a"
     d="m 9.75,23.25 v -12 l -7.118,-8 C 1.1824363,1.7523258 3.5488481,-0.35608578 4.87,1.256 l 4.658,5.237 c 0.569233,0.6404396 1.385152,1.0069117 2.242,1.007 h 2.48 c 2.485281,0 4.06593,2.0147186 4.06593,4.5 v 2.25 c 0,1.999999 -1.98717,1.999999 -1.98717,0 V 12"
     id="path3"
     style="fill:#00d146;fill-opacity:1;stroke:#00d146;stroke-opacity:1"
     sodipodi:nodetypes="ccccccssssc" />
  <path
     class="a"
     d="M12.75,23.25V19.5a.75.75,0,0,1,.75-.75H21a.75.75,0,0,1,.75.75v3.75"
     id="path2"
     style="stroke:#ffffff;stroke-opacity:1;fill:#ffffff;fill-opacity:1" />
  <rect
     style="fill:#ffffff;fill-opacity:1;stroke:#ffffff;stroke-width:0.794589;stroke-opacity:1"
     id="rect4"
     width="8.2613697"
     height="2.5758998"
     x="13.136877"
     y="21.026806" />
</svg>
