<?xml version="1.0" encoding="UTF-8" standalone="no"?>
<svg
   viewBox="0 0 24 24"
   version="1.1"
   id="svg104"
   sodipodi:docname="team-chat.svg"
   inkscape:version="1.2.1 (9c6d41e4, 2022-07-14)"
   xmlns:inkscape="http://www.inkscape.org/namespaces/inkscape"
   xmlns:sodipodi="http://sodipodi.sourceforge.net/DTD/sodipodi-0.dtd"
   xmlns="http://www.w3.org/2000/svg"
   xmlns:svg="http://www.w3.org/2000/svg">
  <sodipodi:namedview
     id="namedview106"
     pagecolor="#ffffff"
     bordercolor="#999999"
     borderopacity="1"
     inkscape:showpageshadow="0"
     inkscape:pageopacity="0"
     inkscape:pagecheckerboard="0"
     inkscape:deskcolor="#d1d1d1"
     showgrid="false"
     inkscape:zoom="5.754223"
     inkscape:cx="-3.1281374"
     inkscape:cy="16.857185"
     inkscape:window-width="1309"
     inkscape:window-height="456"
     inkscape:window-x="0"
     inkscape:window-y="25"
     inkscape:window-maximized="0"
     inkscape:current-layer="svg104" />
  <defs
     id="defs80">
    <style
       id="style78">.a{fill:none;stroke:#000;stroke-linecap:round;stroke-linejoin:round;stroke-width:1.5px;}</style>
  </defs>
  <title
     id="title82">team-chat</title>
  <path
     class="a"
     d="M12.749,21h1.5v2.25l3-2.25h4.5a1.5,1.5,0,0,0,1.5-1.5V15a1.5,1.5,0,0,0-1.5-1.5h-9a1.5,1.5,0,0,0-1.5,1.5v4.5A1.5,1.5,0,0,0,12.749,21Z"
     id="path84"
     style="stroke:#00d146;stroke-opacity:1;fill:#00d146;fill-opacity:1;fill-rule:nonzero" />
  <circle
     class="a"
     cx="4.973"
     cy="16.875"
     r="2.625"
     id="circle86"
     style="stroke:#ffffff;stroke-opacity:1" />
  <path
     class="a"
     d="M9.2,23.25a4.474,4.474,0,0,0-8.449,0"
     id="path88"
     style="stroke:#ffffff;stroke-opacity:1" />
  <circle
     class="a"
     cx="19.024"
     cy="4.125"
     r="2.625"
     id="circle90"
     style="stroke:#ffffff;stroke-opacity:1" />
  <path
     class="a"
     d="M23.249,10.5a4.474,4.474,0,0,0-8.449,0"
     id="path92"
     style="stroke:#ffffff;stroke-opacity:1" />
  <line
     class="a"
     x1="16.499"
     y1="15.75"
     x2="20.249"
     y2="15.75"
     id="line94"
     style="stroke:#ffffff;stroke-opacity:1" />
  <line
     class="a"
     x1="14.249"
     y1="18"
     x2="20.249"
     y2="18"
     id="line96"
     style="stroke:#ffffff;stroke-opacity:1" />
  <path
     class="a"
     d="M11.249,8.25h-1.5V10.5l-3-2.25h-4.5a1.5,1.5,0,0,1-1.5-1.5V2.25a1.5,1.5,0,0,1,1.5-1.5h9a1.5,1.5,0,0,1,1.5,1.5v4.5A1.5,1.5,0,0,1,11.249,8.25Z"
     id="path98"
     style="stroke:#00d146;stroke-opacity:1;fill:#00d146;fill-opacity:1" />
  <line
     class="a"
     x1="7.499"
     y1="3"
     x2="3.749"
     y2="3"
     id="line100"
     style="stroke:#ffffff;stroke-opacity:1" />
  <line
     class="a"
     x1="9.749"
     y1="5.25"
     x2="3.749"
     y2="5.25"
     id="line102"
     style="fill:none;stroke:#ffffff;stroke-opacity:1" />
</svg>
