<?xml version="1.0" encoding="UTF-8" standalone="no"?>
<svg
   id="Regular"
   viewBox="0 0 24 24"
   version="1.1"
   sodipodi:docname="ticket-1.svg"
   inkscape:version="1.2.1 (9c6d41e4, 2022-07-14)"
   xmlns:inkscape="http://www.inkscape.org/namespaces/inkscape"
   xmlns:sodipodi="http://sodipodi.sourceforge.net/DTD/sodipodi-0.dtd"
   xmlns="http://www.w3.org/2000/svg"
   xmlns:svg="http://www.w3.org/2000/svg">
  <sodipodi:namedview
     id="namedview164"
     pagecolor="#ffffff"
     bordercolor="#999999"
     borderopacity="1"
     inkscape:showpageshadow="0"
     inkscape:pageopacity="0"
     inkscape:pagecheckerboard="0"
     inkscape:deskcolor="#d1d1d1"
     showgrid="false"
     inkscape:zoom="7.9019917"
     inkscape:cx="-13.477615"
     inkscape:cy="12.148836"
     inkscape:window-width="1309"
     inkscape:window-height="588"
     inkscape:window-x="2560"
     inkscape:window-y="239"
     inkscape:window-maximized="0"
     inkscape:current-layer="Regular" />
  <defs
     id="defs151">
    <style
       id="style149">.cls-1{fill:none;stroke:#000;stroke-linecap:round;stroke-linejoin:round;stroke-width:1.5px;}</style>
  </defs>
  <title
     id="title153">ticket-1</title>
  <path
     class="cls-1"
     d="M11.479,23.1a.814.814,0,0,0,1.05-.089L23.01,12.529a.815.815,0,0,0,.089-1.05,4.081,4.081,0,0,1,0-4.728A.814.814,0,0,0,23.01,5.7L18.3.989A.815.815,0,0,0,17.248.9a4.081,4.081,0,0,1-4.727,0,.816.816,0,0,0-1.05.089L.99,11.471A.816.816,0,0,0,.9,12.521a4.081,4.081,0,0,1,0,4.728A.814.814,0,0,0,.99,18.3L5.7,23.011a.814.814,0,0,0,1.05.087A4.081,4.081,0,0,1,11.479,23.1Z"
     id="path155"
     style="stroke:#00d146;stroke-opacity:1;fill:#00d146;fill-opacity:1" />
  <rect
     class="cls-1"
     x="7.104"
     y="6.288"
     width="9.792"
     height="11.424"
     rx="1"
     ry="1"
     transform="translate(12 -4.971) rotate(45)"
     id="rect157"
     style="stroke:#ffffff;stroke-opacity:1;fill:#ffffff;fill-opacity:1" />
  <line
     class="cls-1"
     x1="12.577"
     y1="9.115"
     x2="9.115"
     y2="12.577"
     id="line159"
     style="stroke:#00d146;stroke-opacity:1" />
  <line
     class="cls-1"
     x1="13.779"
     y1="12.529"
     x2="12.701"
     y2="13.607"
     id="line161"
     style="stroke:#00d146;stroke-opacity:1" />
</svg>
